<svg xmlns="http://www.w3.org/2000/svg" version="1.1" xmlns:xlink="http://www.w3.org/1999/xlink" xmlns:svgjs="http://svgjs.dev/svgjs" viewBox="0 0 800 800"><g shape-rendering="crispEdges"><g transform="translate(0 0)"><use xlink:href="#SvgjsSymbol1024" x="0" y="700" fill="hsl(231, 67%, 37%)"></use><use xlink:href="#SvgjsSymbol1025" x="0" y="700" fill="#5c5cd0"></use><use xlink:href="#SvgjsSymbol1026" x="0" y="700" fill="#000e6e"></use></g><g transform="translate(0 0)"><use xlink:href="#SvgjsSymbol1024" x="100" y="700" fill="hsl(231, 67%, 37%)"></use><use xlink:href="#SvgjsSymbol1025" x="100" y="700" fill="#5c5cd0"></use><use xlink:href="#SvgjsSymbol1026" x="100" y="700" fill="#000e6e"></use></g><g transform="translate(0 0)"><use xlink:href="#SvgjsSymbol1024" x="200" y="700" fill="hsl(231, 67%, 37%)"></use><use xlink:href="#SvgjsSymbol1025" x="200" y="700" fill="#5c5cd0"></use><use xlink:href="#SvgjsSymbol1026" x="200" y="700" fill="#000e6e"></use></g><g transform="translate(0 0)"><use xlink:href="#SvgjsSymbol1024" x="300" y="700" fill="hsl(231, 67%, 37%)"></use><use xlink:href="#SvgjsSymbol1025" x="300" y="700" fill="#5c5cd0"></use><use xlink:href="#SvgjsSymbol1026" x="300" y="700" fill="#000e6e"></use></g><g transform="translate(0 0)"><use xlink:href="#SvgjsSymbol1024" x="400" y="700" fill="hsl(231, 67%, 37%)"></use><use xlink:href="#SvgjsSymbol1025" x="400" y="700" fill="#5c5cd0"></use><use xlink:href="#SvgjsSymbol1026" x="400" y="700" fill="#000e6e"></use></g><g transform="translate(0 0)"><use xlink:href="#SvgjsSymbol1024" x="500" y="700" fill="hsl(231, 67%, 37%)"></use><use xlink:href="#SvgjsSymbol1025" x="500" y="700" fill="#5c5cd0"></use><use xlink:href="#SvgjsSymbol1026" x="500" y="700" fill="#000e6e"></use></g><g transform="translate(0 0)"><use xlink:href="#SvgjsSymbol1024" x="600" y="700" fill="hsl(231, 67%, 37%)"></use><use xlink:href="#SvgjsSymbol1025" x="600" y="700" fill="#5c5cd0"></use><use xlink:href="#SvgjsSymbol1026" x="600" y="700" fill="#000e6e"></use></g><g transform="translate(0 0)"><use xlink:href="#SvgjsSymbol1024" x="700" y="700" fill="hsl(231, 67%, 37%)"></use><use xlink:href="#SvgjsSymbol1025" x="700" y="700" fill="#5c5cd0"></use><use xlink:href="#SvgjsSymbol1026" x="700" y="700" fill="#000e6e"></use></g><g transform="translate(0 0)"><use xlink:href="#SvgjsSymbol1024" x="0" y="650" fill="hsl(231, 67%, 37%)"></use><use xlink:href="#SvgjsSymbol1025" x="0" y="650" fill="#5c5cd0"></use><use xlink:href="#SvgjsSymbol1026" x="0" y="650" fill="#000e6e"></use></g><g transform="translate(0 0)"><use xlink:href="#SvgjsSymbol1024" x="0" y="600" fill="hsl(231, 67%, 37%)"></use><use xlink:href="#SvgjsSymbol1025" x="0" y="600" fill="#5c5cd0"></use><use xlink:href="#SvgjsSymbol1026" x="0" y="600" fill="#000e6e"></use></g><g transform="translate(0 0)"><use xlink:href="#SvgjsSymbol1024" x="100" y="650" fill="hsl(231, 67%, 37%)"></use><use xlink:href="#SvgjsSymbol1025" x="100" y="650" fill="#5c5cd0"></use><use xlink:href="#SvgjsSymbol1026" x="100" y="650" fill="#000e6e"></use></g><g transform="translate(0 0)"><use xlink:href="#SvgjsSymbol1024" x="100" y="600" fill="hsl(231, 67%, 37%)"></use><use xlink:href="#SvgjsSymbol1025" x="100" y="600" fill="#5c5cd0"></use><use xlink:href="#SvgjsSymbol1026" x="100" y="600" fill="#000e6e"></use></g><g transform="translate(0 0)"><use xlink:href="#SvgjsSymbol1024" x="200" y="650" fill="hsl(231, 67%, 37%)"></use><use xlink:href="#SvgjsSymbol1025" x="200" y="650" fill="#5c5cd0"></use><use xlink:href="#SvgjsSymbol1026" x="200" y="650" fill="#000e6e"></use></g><g transform="translate(0 0)"><use xlink:href="#SvgjsSymbol1024" x="200" y="600" fill="hsl(231, 67%, 37%)"></use><use xlink:href="#SvgjsSymbol1025" x="200" y="600" fill="#5c5cd0"></use><use xlink:href="#SvgjsSymbol1026" x="200" y="600" fill="#000e6e"></use></g><g transform="translate(0 0)"><use xlink:href="#SvgjsSymbol1024" x="300" y="650" fill="hsl(231, 67%, 37%)"></use><use xlink:href="#SvgjsSymbol1025" x="300" y="650" fill="#5c5cd0"></use><use xlink:href="#SvgjsSymbol1026" x="300" y="650" fill="#000e6e"></use></g><g transform="translate(0 0)"><use xlink:href="#SvgjsSymbol1024" x="300" y="600" fill="hsl(231, 67%, 37%)"></use><use xlink:href="#SvgjsSymbol1025" x="300" y="600" fill="#5c5cd0"></use><use xlink:href="#SvgjsSymbol1026" x="300" y="600" fill="#000e6e"></use></g><g transform="translate(0 0)"><use xlink:href="#SvgjsSymbol1024" x="400" y="650" fill="hsl(231, 67%, 37%)"></use><use xlink:href="#SvgjsSymbol1025" x="400" y="650" fill="#5c5cd0"></use><use xlink:href="#SvgjsSymbol1026" x="400" y="650" fill="#000e6e"></use></g><g transform="translate(0 0)"><use xlink:href="#SvgjsSymbol1024" x="400" y="600" fill="hsl(231, 67%, 37%)"></use><use xlink:href="#SvgjsSymbol1025" x="400" y="600" fill="#5c5cd0"></use><use xlink:href="#SvgjsSymbol1026" x="400" y="600" fill="#000e6e"></use></g><g transform="translate(0 0)"><use xlink:href="#SvgjsSymbol1024" x="500" y="650" fill="hsl(231, 67%, 37%)"></use><use xlink:href="#SvgjsSymbol1025" x="500" y="650" fill="#5c5cd0"></use><use xlink:href="#SvgjsSymbol1026" x="500" y="650" fill="#000e6e"></use></g><g transform="translate(0 0)"><use xlink:href="#SvgjsSymbol1024" x="500" y="600" fill="hsl(231, 67%, 37%)"></use><use xlink:href="#SvgjsSymbol1025" x="500" y="600" fill="#5c5cd0"></use><use xlink:href="#SvgjsSymbol1026" x="500" y="600" fill="#000e6e"></use></g><g transform="translate(0 0)"><use xlink:href="#SvgjsSymbol1024" x="600" y="650" fill="hsl(231, 67%, 37%)"></use><use xlink:href="#SvgjsSymbol1025" x="600" y="650" fill="#5c5cd0"></use><use xlink:href="#SvgjsSymbol1026" x="600" y="650" fill="#000e6e"></use></g><g transform="translate(0 0)"><use xlink:href="#SvgjsSymbol1024" x="600" y="600" fill="hsl(231, 67%, 37%)"></use><use xlink:href="#SvgjsSymbol1025" x="600" y="600" fill="#5c5cd0"></use><use xlink:href="#SvgjsSymbol1026" x="600" y="600" fill="#000e6e"></use></g><g transform="translate(0 0)"><use xlink:href="#SvgjsSymbol1024" x="700" y="650" fill="hsl(231, 67%, 37%)"></use><use xlink:href="#SvgjsSymbol1025" x="700" y="650" fill="#5c5cd0"></use><use xlink:href="#SvgjsSymbol1026" x="700" y="650" fill="#000e6e"></use></g><g transform="translate(0 0)"><use xlink:href="#SvgjsSymbol1024" x="700" y="600" fill="hsl(231, 67%, 37%)"></use><use xlink:href="#SvgjsSymbol1025" x="700" y="600" fill="#5c5cd0"></use><use xlink:href="#SvgjsSymbol1026" x="700" y="600" fill="#000e6e"></use></g><g transform="translate(-100 0)"><use xlink:href="#SvgjsSymbol1024" x="50" y="725" fill="hsl(231, 67%, 37%)"></use><use xlink:href="#SvgjsSymbol1025" x="50" y="725" fill="#5c5cd0"></use><use xlink:href="#SvgjsSymbol1026" x="50" y="725" fill="#000e6e"></use></g><g transform="translate(-100 0)"><use xlink:href="#SvgjsSymbol1024" x="50" y="675" fill="hsl(231, 67%, 37%)"></use><use xlink:href="#SvgjsSymbol1025" x="50" y="675" fill="#5c5cd0"></use><use xlink:href="#SvgjsSymbol1026" x="50" y="675" fill="#000e6e"></use></g><g transform="translate(-100 0)"><use xlink:href="#SvgjsSymbol1024" x="150" y="725" fill="hsl(231, 67%, 37%)"></use><use xlink:href="#SvgjsSymbol1025" x="150" y="725" fill="#5c5cd0"></use><use xlink:href="#SvgjsSymbol1026" x="150" y="725" fill="#000e6e"></use></g><g transform="translate(-100 0)"><use xlink:href="#SvgjsSymbol1024" x="350" y="725" fill="hsl(231, 67%, 37%)"></use><use xlink:href="#SvgjsSymbol1025" x="350" y="725" fill="#5c5cd0"></use><use xlink:href="#SvgjsSymbol1026" x="350" y="725" fill="#000e6e"></use></g><g transform="translate(-100 0)"><use xlink:href="#SvgjsSymbol1024" x="550" y="725" fill="hsl(231, 67%, 37%)"></use><use xlink:href="#SvgjsSymbol1025" x="550" y="725" fill="#5c5cd0"></use><use xlink:href="#SvgjsSymbol1026" x="550" y="725" fill="#000e6e"></use></g><g transform="translate(100 0)"><use xlink:href="#SvgjsSymbol1024" x="650" y="725" fill="hsl(231, 67%, 37%)"></use><use xlink:href="#SvgjsSymbol1025" x="650" y="725" fill="#5c5cd0"></use><use xlink:href="#SvgjsSymbol1026" x="650" y="725" fill="#000e6e"></use></g><g transform="translate(100 0)"><use xlink:href="#SvgjsSymbol1024" x="650" y="675" fill="hsl(231, 67%, 37%)"></use><use xlink:href="#SvgjsSymbol1025" x="650" y="675" fill="#5c5cd0"></use><use xlink:href="#SvgjsSymbol1026" x="650" y="675" fill="#000e6e"></use></g><g><use xlink:href="#SvgjsSymbol1024" x="650" y="725" fill="hsl(231, 67%, 37%)"></use><use xlink:href="#SvgjsSymbol1025" x="650" y="725" fill="#5c5cd0"></use><use xlink:href="#SvgjsSymbol1026" x="650" y="725" fill="#000e6e"></use></g><g><use xlink:href="#SvgjsSymbol1024" x="550" y="725" fill="hsl(231, 67%, 37%)"></use><use xlink:href="#SvgjsSymbol1025" x="550" y="725" fill="#5c5cd0"></use><use xlink:href="#SvgjsSymbol1026" x="550" y="725" fill="#000e6e"></use></g><g><use xlink:href="#SvgjsSymbol1024" x="550" y="675" fill="hsl(231, 67%, 37%)"></use><use xlink:href="#SvgjsSymbol1025" x="550" y="675" fill="#5c5cd0"></use><use xlink:href="#SvgjsSymbol1026" x="550" y="675" fill="#000e6e"></use></g><g><use xlink:href="#SvgjsSymbol1024" x="400" y="750" fill="hsl(231, 67%, 37%)"></use><use xlink:href="#SvgjsSymbol1025" x="400" y="750" fill="#5c5cd0"></use><use xlink:href="#SvgjsSymbol1026" x="400" y="750" fill="#000e6e"></use></g><g><use xlink:href="#SvgjsSymbol1024" x="150" y="725" fill="hsl(231, 67%, 37%)"></use><use xlink:href="#SvgjsSymbol1025" x="150" y="725" fill="#5c5cd0"></use><use xlink:href="#SvgjsSymbol1026" x="150" y="725" fill="#000e6e"></use></g><g><use xlink:href="#SvgjsSymbol1024" x="150" y="675" fill="hsl(231, 67%, 37%)"></use><use xlink:href="#SvgjsSymbol1025" x="150" y="675" fill="#5c5cd0"></use><use xlink:href="#SvgjsSymbol1026" x="150" y="675" fill="#000e6e"></use></g><g><use xlink:href="#SvgjsSymbol1024" x="550" y="625" fill="hsl(54, 100%, 50%)"></use><use xlink:href="#SvgjsSymbol1025" x="550" y="625" fill="#ffff55"></use><use xlink:href="#SvgjsSymbol1026" x="550" y="625" fill="#c7b300"></use></g><g><use xlink:href="#SvgjsSymbol1024" x="350" y="725" fill="hsl(54, 100%, 50%)"></use><use xlink:href="#SvgjsSymbol1025" x="350" y="725" fill="#ffff55"></use><use xlink:href="#SvgjsSymbol1026" x="350" y="725" fill="#c7b300"></use></g><g><use xlink:href="#SvgjsSymbol1024" x="50" y="675" fill="hsl(54, 100%, 50%)"></use><use xlink:href="#SvgjsSymbol1025" x="50" y="675" fill="#ffff55"></use><use xlink:href="#SvgjsSymbol1026" x="50" y="675" fill="#c7b300"></use></g><g><use xlink:href="#SvgjsSymbol1024" x="200" y="550" fill="hsl(54, 100%, 50%)"></use><use xlink:href="#SvgjsSymbol1025" x="200" y="550" fill="#ffff55"></use><use xlink:href="#SvgjsSymbol1026" x="200" y="550" fill="#c7b300"></use></g><g><use xlink:href="#SvgjsSymbol1024" x="700" y="750" fill="hsl(54, 100%, 50%)"></use><use xlink:href="#SvgjsSymbol1025" x="700" y="750" fill="#ffff55"></use><use xlink:href="#SvgjsSymbol1026" x="700" y="750" fill="#c7b300"></use></g><g><use xlink:href="#SvgjsSymbol1024" x="400" y="750" fill="hsl(54, 100%, 50%)"></use><use xlink:href="#SvgjsSymbol1025" x="400" y="750" fill="#ffff55"></use><use xlink:href="#SvgjsSymbol1026" x="400" y="750" fill="#c7b300"></use></g><g><use xlink:href="#SvgjsSymbol1024" x="450" y="675" fill="hsl(231, 67%, 37%)"></use><use xlink:href="#SvgjsSymbol1025" x="450" y="675" fill="#5c5cd0"></use><use xlink:href="#SvgjsSymbol1026" x="450" y="675" fill="#000e6e"></use></g><g><use xlink:href="#SvgjsSymbol1024" x="250" y="675" fill="hsl(231, 67%, 37%)"></use><use xlink:href="#SvgjsSymbol1025" x="250" y="675" fill="#5c5cd0"></use><use xlink:href="#SvgjsSymbol1026" x="250" y="675" fill="#000e6e"></use></g><g><use xlink:href="#SvgjsSymbol1024" x="250" y="625" fill="hsl(231, 67%, 37%)"></use><use xlink:href="#SvgjsSymbol1025" x="250" y="625" fill="#5c5cd0"></use><use xlink:href="#SvgjsSymbol1026" x="250" y="625" fill="#000e6e"></use></g><g><use xlink:href="#SvgjsSymbol1024" x="200" y="750" fill="hsl(231, 67%, 37%)"></use><use xlink:href="#SvgjsSymbol1025" x="200" y="750" fill="#5c5cd0"></use><use xlink:href="#SvgjsSymbol1026" x="200" y="750" fill="#000e6e"></use></g><g><use xlink:href="#SvgjsSymbol1024" x="300" y="750" fill="hsl(231, 67%, 37%)"></use><use xlink:href="#SvgjsSymbol1025" x="300" y="750" fill="#5c5cd0"></use><use xlink:href="#SvgjsSymbol1026" x="300" y="750" fill="#000e6e"></use></g><g><use xlink:href="#SvgjsSymbol1024" x="300" y="700" fill="hsl(231, 67%, 37%)"></use><use xlink:href="#SvgjsSymbol1025" x="300" y="700" fill="#5c5cd0"></use><use xlink:href="#SvgjsSymbol1026" x="300" y="700" fill="#000e6e"></use></g><g><use xlink:href="#SvgjsSymbol1024" x="650" y="675" fill="hsl(231, 67%, 37%)"></use><use xlink:href="#SvgjsSymbol1025" x="650" y="675" fill="#5c5cd0"></use><use xlink:href="#SvgjsSymbol1026" x="650" y="675" fill="#000e6e"></use></g><g><use xlink:href="#SvgjsSymbol1024" x="650" y="625" fill="hsl(231, 67%, 37%)"></use><use xlink:href="#SvgjsSymbol1025" x="650" y="625" fill="#5c5cd0"></use><use xlink:href="#SvgjsSymbol1026" x="650" y="625" fill="#000e6e"></use></g><g><use xlink:href="#SvgjsSymbol1024" x="650" y="575" fill="hsl(231, 67%, 37%)"></use><use xlink:href="#SvgjsSymbol1025" x="650" y="575" fill="#5c5cd0"></use><use xlink:href="#SvgjsSymbol1026" x="650" y="575" fill="#000e6e"></use></g><g><use xlink:href="#SvgjsSymbol1024" x="600" y="750" fill="hsl(231, 67%, 37%)"></use><use xlink:href="#SvgjsSymbol1025" x="600" y="750" fill="#5c5cd0"></use><use xlink:href="#SvgjsSymbol1026" x="600" y="750" fill="#000e6e"></use></g><g><use xlink:href="#SvgjsSymbol1024" x="600" y="700" fill="hsl(231, 67%, 37%)"></use><use xlink:href="#SvgjsSymbol1025" x="600" y="700" fill="#5c5cd0"></use><use xlink:href="#SvgjsSymbol1026" x="600" y="700" fill="#000e6e"></use></g><g><use xlink:href="#SvgjsSymbol1024" x="500" y="750" fill="hsl(231, 67%, 37%)"></use><use xlink:href="#SvgjsSymbol1025" x="500" y="750" fill="#5c5cd0"></use><use xlink:href="#SvgjsSymbol1026" x="500" y="750" fill="#000e6e"></use></g><g><use xlink:href="#SvgjsSymbol1024" x="450" y="575" fill="hsl(231, 67%, 37%)"></use><use xlink:href="#SvgjsSymbol1025" x="450" y="575" fill="#5c5cd0"></use><use xlink:href="#SvgjsSymbol1026" x="450" y="575" fill="#000e6e"></use></g><g><use xlink:href="#SvgjsSymbol1024" x="400" y="600" fill="hsl(231, 67%, 37%)"></use><use xlink:href="#SvgjsSymbol1025" x="400" y="600" fill="#5c5cd0"></use><use xlink:href="#SvgjsSymbol1026" x="400" y="600" fill="#000e6e"></use></g><g><use xlink:href="#SvgjsSymbol1024" x="500" y="600" fill="hsl(231, 67%, 37%)"></use><use xlink:href="#SvgjsSymbol1025" x="500" y="600" fill="#5c5cd0"></use><use xlink:href="#SvgjsSymbol1026" x="500" y="600" fill="#000e6e"></use></g><g><use xlink:href="#SvgjsSymbol1024" x="350" y="575" fill="hsl(231, 67%, 37%)"></use><use xlink:href="#SvgjsSymbol1025" x="350" y="575" fill="#5c5cd0"></use><use xlink:href="#SvgjsSymbol1026" x="350" y="575" fill="#000e6e"></use></g><g><use xlink:href="#SvgjsSymbol1024" x="400" y="600" fill="hsl(231, 67%, 37%)"></use><use xlink:href="#SvgjsSymbol1025" x="400" y="600" fill="#5c5cd0"></use><use xlink:href="#SvgjsSymbol1026" x="400" y="600" fill="#000e6e"></use></g><g><use xlink:href="#SvgjsSymbol1024" x="300" y="600" fill="hsl(231, 67%, 37%)"></use><use xlink:href="#SvgjsSymbol1025" x="300" y="600" fill="#5c5cd0"></use><use xlink:href="#SvgjsSymbol1026" x="300" y="600" fill="#000e6e"></use></g><g><use xlink:href="#SvgjsSymbol1024" x="250" y="625" fill="hsl(231, 67%, 37%)"></use><use xlink:href="#SvgjsSymbol1025" x="250" y="625" fill="#5c5cd0"></use><use xlink:href="#SvgjsSymbol1026" x="250" y="625" fill="#000e6e"></use></g><g><use xlink:href="#SvgjsSymbol1024" x="300" y="550" fill="hsl(231, 67%, 37%)"></use><use xlink:href="#SvgjsSymbol1025" x="300" y="550" fill="#5c5cd0"></use><use xlink:href="#SvgjsSymbol1026" x="300" y="550" fill="#000e6e"></use></g><g><use xlink:href="#SvgjsSymbol1024" x="350" y="525" fill="hsl(231, 67%, 37%)"></use><use xlink:href="#SvgjsSymbol1025" x="350" y="525" fill="#5c5cd0"></use><use xlink:href="#SvgjsSymbol1026" x="350" y="525" fill="#000e6e"></use></g><g><use xlink:href="#SvgjsSymbol1024" x="300" y="550" fill="hsl(231, 67%, 37%)"></use><use xlink:href="#SvgjsSymbol1025" x="300" y="550" fill="#5c5cd0"></use><use xlink:href="#SvgjsSymbol1026" x="300" y="550" fill="#000e6e"></use></g><g><use xlink:href="#SvgjsSymbol1024" x="50" y="525" fill="hsl(231, 67%, 37%)"></use><use xlink:href="#SvgjsSymbol1025" x="50" y="525" fill="#5c5cd0"></use><use xlink:href="#SvgjsSymbol1026" x="50" y="525" fill="#000e6e"></use></g><g><use xlink:href="#SvgjsSymbol1024" x="100" y="550" fill="hsl(231, 67%, 37%)"></use><use xlink:href="#SvgjsSymbol1025" x="100" y="550" fill="#5c5cd0"></use><use xlink:href="#SvgjsSymbol1026" x="100" y="550" fill="#000e6e"></use></g><g><use xlink:href="#SvgjsSymbol1024" x="50" y="575" fill="hsl(231, 67%, 37%)"></use><use xlink:href="#SvgjsSymbol1025" x="50" y="575" fill="#5c5cd0"></use><use xlink:href="#SvgjsSymbol1026" x="50" y="575" fill="#000e6e"></use></g><g><use xlink:href="#SvgjsSymbol1024" x="100" y="600" fill="hsl(231, 67%, 37%)"></use><use xlink:href="#SvgjsSymbol1025" x="100" y="600" fill="#5c5cd0"></use><use xlink:href="#SvgjsSymbol1026" x="100" y="600" fill="#000e6e"></use></g><g><use xlink:href="#SvgjsSymbol1024" x="0" y="600" fill="hsl(231, 67%, 37%)"></use><use xlink:href="#SvgjsSymbol1025" x="0" y="600" fill="#5c5cd0"></use><use xlink:href="#SvgjsSymbol1026" x="0" y="600" fill="#000e6e"></use></g><g><use xlink:href="#SvgjsSymbol1024" x="50" y="525" fill="hsl(231, 67%, 37%)"></use><use xlink:href="#SvgjsSymbol1025" x="50" y="525" fill="#5c5cd0"></use><use xlink:href="#SvgjsSymbol1026" x="50" y="525" fill="#000e6e"></use></g><g><use xlink:href="#SvgjsSymbol1024" x="100" y="750" fill="hsl(231, 67%, 37%)"></use><use xlink:href="#SvgjsSymbol1025" x="100" y="750" fill="#5c5cd0"></use><use xlink:href="#SvgjsSymbol1026" x="100" y="750" fill="#000e6e"></use></g><g><use xlink:href="#SvgjsSymbol1024" x="0" y="750" fill="hsl(231, 67%, 37%)"></use><use xlink:href="#SvgjsSymbol1025" x="0" y="750" fill="#5c5cd0"></use><use xlink:href="#SvgjsSymbol1026" x="0" y="750" fill="#000e6e"></use></g><g><use xlink:href="#SvgjsSymbol1024" x="250" y="775" fill="hsl(231, 67%, 37%)"></use><use xlink:href="#SvgjsSymbol1025" x="250" y="775" fill="#5c5cd0"></use><use xlink:href="#SvgjsSymbol1026" x="250" y="775" fill="#000e6e"></use></g><g><use xlink:href="#SvgjsSymbol1024" x="250" y="725" fill="hsl(231, 67%, 37%)"></use><use xlink:href="#SvgjsSymbol1025" x="250" y="725" fill="#5c5cd0"></use><use xlink:href="#SvgjsSymbol1026" x="250" y="725" fill="#000e6e"></use></g><g><use xlink:href="#SvgjsSymbol1024" x="250" y="675" fill="hsl(231, 67%, 37%)"></use><use xlink:href="#SvgjsSymbol1025" x="250" y="675" fill="#5c5cd0"></use><use xlink:href="#SvgjsSymbol1026" x="250" y="675" fill="#000e6e"></use></g><g><use xlink:href="#SvgjsSymbol1024" x="350" y="775" fill="hsl(231, 67%, 37%)"></use><use xlink:href="#SvgjsSymbol1025" x="350" y="775" fill="#5c5cd0"></use><use xlink:href="#SvgjsSymbol1026" x="350" y="775" fill="#000e6e"></use></g><g><use xlink:href="#SvgjsSymbol1024" x="550" y="775" fill="hsl(231, 67%, 37%)"></use><use xlink:href="#SvgjsSymbol1025" x="550" y="775" fill="#5c5cd0"></use><use xlink:href="#SvgjsSymbol1026" x="550" y="775" fill="#000e6e"></use></g><g><use xlink:href="#SvgjsSymbol1024" x="500" y="550" fill="hsl(231, 67%, 37%)"></use><use xlink:href="#SvgjsSymbol1025" x="500" y="550" fill="#5c5cd0"></use><use xlink:href="#SvgjsSymbol1026" x="500" y="550" fill="#000e6e"></use></g><g><use xlink:href="#SvgjsSymbol1024" x="300" y="750" fill="hsl(231, 67%, 37%)"></use><use xlink:href="#SvgjsSymbol1025" x="300" y="750" fill="#5c5cd0"></use><use xlink:href="#SvgjsSymbol1026" x="300" y="750" fill="#000e6e"></use></g><g><use xlink:href="#SvgjsSymbol1024" x="550" y="725" fill="hsl(231, 67%, 37%)"></use><use xlink:href="#SvgjsSymbol1025" x="550" y="725" fill="#5c5cd0"></use><use xlink:href="#SvgjsSymbol1026" x="550" y="725" fill="#000e6e"></use></g><g><use xlink:href="#SvgjsSymbol1024" x="450" y="775" fill="hsl(231, 67%, 37%)"></use><use xlink:href="#SvgjsSymbol1025" x="450" y="775" fill="#5c5cd0"></use><use xlink:href="#SvgjsSymbol1026" x="450" y="775" fill="#000e6e"></use></g><g><use xlink:href="#SvgjsSymbol1024" x="600" y="550" fill="hsl(231, 67%, 37%)"></use><use xlink:href="#SvgjsSymbol1025" x="600" y="550" fill="#5c5cd0"></use><use xlink:href="#SvgjsSymbol1026" x="600" y="550" fill="#000e6e"></use></g><g><use xlink:href="#SvgjsSymbol1024" x="650" y="575" fill="hsl(231, 67%, 37%)"></use><use xlink:href="#SvgjsSymbol1025" x="650" y="575" fill="#5c5cd0"></use><use xlink:href="#SvgjsSymbol1026" x="650" y="575" fill="#000e6e"></use></g><g><use xlink:href="#SvgjsSymbol1024" x="600" y="750" fill="hsl(231, 67%, 37%)"></use><use xlink:href="#SvgjsSymbol1025" x="600" y="750" fill="#5c5cd0"></use><use xlink:href="#SvgjsSymbol1026" x="600" y="750" fill="#000e6e"></use></g><g><use xlink:href="#SvgjsSymbol1024" x="550" y="775" fill="hsl(231, 67%, 37%)"></use><use xlink:href="#SvgjsSymbol1025" x="550" y="775" fill="#5c5cd0"></use><use xlink:href="#SvgjsSymbol1026" x="550" y="775" fill="#000e6e"></use></g><g><use xlink:href="#SvgjsSymbol1024" x="550" y="675" fill="hsl(231, 67%, 37%)"></use><use xlink:href="#SvgjsSymbol1025" x="550" y="675" fill="#5c5cd0"></use><use xlink:href="#SvgjsSymbol1026" x="550" y="675" fill="#000e6e"></use></g><g><use xlink:href="#SvgjsSymbol1024" x="700" y="550" fill="hsl(231, 67%, 37%)"></use><use xlink:href="#SvgjsSymbol1025" x="700" y="550" fill="#5c5cd0"></use><use xlink:href="#SvgjsSymbol1026" x="700" y="550" fill="#000e6e"></use></g><g><use xlink:href="#SvgjsSymbol1024" x="650" y="575" fill="hsl(231, 67%, 37%)"></use><use xlink:href="#SvgjsSymbol1025" x="650" y="575" fill="#5c5cd0"></use><use xlink:href="#SvgjsSymbol1026" x="650" y="575" fill="#000e6e"></use></g><g><use xlink:href="#SvgjsSymbol1024" x="0" y="550" fill="hsl(231, 67%, 37%)"></use><use xlink:href="#SvgjsSymbol1025" x="0" y="550" fill="#5c5cd0"></use><use xlink:href="#SvgjsSymbol1026" x="0" y="550" fill="#000e6e"></use></g></g><symbol id="SvgjsSymbol1000"><polygon points="0,12.5 25,0 50,12.5 25,25"></polygon></symbol><symbol id="SvgjsSymbol1001"><polygon points="0,12.5 25,25 25,50 0,37.5"></polygon></symbol><symbol id="SvgjsSymbol1002"><polygon points="25,25 50,12.5 50,37.5 25,50"></polygon></symbol><g></g><symbol id="SvgjsSymbol1003"><polygon points="0,18.75 37.5,0 75,18.75 37.5,37.5"></polygon></symbol><symbol id="SvgjsSymbol1004"><polygon points="0,18.75 37.5,37.5 37.5,75 0,56.25"></polygon></symbol><symbol id="SvgjsSymbol1005"><polygon points="37.5,37.5 75,18.75 75,56.25 37.5,75"></polygon></symbol><symbol id="SvgjsSymbol1006"><polygon points="0,25 50,0 100,25 50,50"></polygon></symbol><symbol id="SvgjsSymbol1007"><polygon points="0,25 50,50 50,100 0,75"></polygon></symbol><symbol id="SvgjsSymbol1008"><polygon points="50,50 100,25 100,75 50,100"></polygon></symbol><symbol id="SvgjsSymbol1009"><polygon points="0,31.25 62.5,0 125,31.25 62.5,62.5"></polygon></symbol><symbol id="SvgjsSymbol1010"><polygon points="0,31.25 62.5,62.5 62.5,125 0,93.75"></polygon></symbol><symbol id="SvgjsSymbol1011"><polygon points="62.5,62.5 125,31.25 125,93.75 62.5,125"></polygon></symbol><symbol id="SvgjsSymbol1012"><polygon points="0,37.5 75,0 150,37.5 75,75"></polygon></symbol><symbol id="SvgjsSymbol1013"><polygon points="0,37.5 75,75 75,150 0,112.5"></polygon></symbol><symbol id="SvgjsSymbol1014"><polygon points="75,75 150,37.5 150,112.5 75,150"></polygon></symbol><symbol id="SvgjsSymbol1015"><polygon points="0,43.75 87.5,0 175,43.75 87.5,87.5"></polygon></symbol><symbol id="SvgjsSymbol1016"><polygon points="0,43.75 87.5,87.5 87.5,175 0,131.25"></polygon></symbol><symbol id="SvgjsSymbol1017"><polygon points="87.5,87.5 175,43.75 175,131.25 87.5,175"></polygon></symbol><symbol id="SvgjsSymbol1018"><polygon points="0,37.5 75,0 150,37.5 75,75"></polygon></symbol><symbol id="SvgjsSymbol1019"><polygon points="0,37.5 75,75 75,150 0,112.5"></polygon></symbol><symbol id="SvgjsSymbol1020"><polygon points="75,75 150,37.5 150,112.5 75,150"></polygon></symbol><symbol id="SvgjsSymbol1021"><polygon points="0,31.25 62.5,0 125,31.25 62.5,62.5"></polygon></symbol><symbol id="SvgjsSymbol1022"><polygon points="0,31.25 62.5,62.5 62.5,125 0,93.75"></polygon></symbol><symbol id="SvgjsSymbol1023"><polygon points="62.5,62.5 125,31.25 125,93.75 62.5,125"></polygon></symbol><symbol id="SvgjsSymbol1024"><polygon points="0,25 50,0 100,25 50,50"></polygon></symbol><symbol id="SvgjsSymbol1025"><polygon points="0,25 50,50 50,100 0,75"></polygon></symbol><symbol id="SvgjsSymbol1026"><polygon points="50,50 100,25 100,75 50,100"></polygon></symbol></svg>