<svg xmlns="http://www.w3.org/2000/svg" xmlns:xlink="http://www.w3.org/1999/xlink" width="1080" zoomAndPan="magnify" viewBox="0 0 810 809.999993" height="1080" preserveAspectRatio="xMidYMid meet" version="1.0"><defs><g/><clipPath id="2cae5a0d8d"><path d="M 7.753906 57.046875 L 805 57.046875 L 805 751.378906 L 7.753906 751.378906 Z M 7.753906 57.046875 " clip-rule="nonzero"/></clipPath><clipPath id="69cacd4469"><path d="M 82.753906 57.046875 L 729.59375 57.046875 C 771.015625 57.046875 804.59375 90.625 804.59375 132.046875 L 804.59375 676.378906 C 804.59375 717.800781 771.015625 751.378906 729.59375 751.378906 L 82.753906 751.378906 C 41.332031 751.378906 7.753906 717.800781 7.753906 676.378906 L 7.753906 132.046875 C 7.753906 90.625 41.332031 57.046875 82.753906 57.046875 Z M 82.753906 57.046875 " clip-rule="nonzero"/></clipPath><clipPath id="48fce749af"><path d="M 7.753906 57.046875 L 426.839844 57.046875 L 426.839844 752 L 7.753906 752 Z M 7.753906 57.046875 " clip-rule="nonzero"/></clipPath><clipPath id="dfabe3e4cc"><path d="M 82.753906 57.046875 L 351.839844 57.046875 C 393.261719 57.046875 426.839844 90.625 426.839844 132.046875 L 426.839844 676.378906 C 426.839844 717.800781 393.261719 751.378906 351.839844 751.378906 L 82.753906 751.378906 C 41.332031 751.378906 7.753906 717.800781 7.753906 676.378906 L 7.753906 132.046875 C 7.753906 90.625 41.332031 57.046875 82.753906 57.046875 Z M 82.753906 57.046875 " clip-rule="nonzero"/></clipPath></defs><g clip-path="url(#2cae5a0d8d)"><g clip-path="url(#69cacd4469)"><path fill="#1e3a8a" d="M 7.753906 57.046875 L 805.152344 57.046875 L 805.152344 751.378906 L 7.753906 751.378906 Z M 7.753906 57.046875 " fill-opacity="1" fill-rule="nonzero"/></g></g><g clip-path="url(#48fce749af)"><g clip-path="url(#dfabe3e4cc)"><path fill="#ffde59" d="M 7.753906 57.046875 L 426.839844 57.046875 L 426.839844 751.160156 L 7.753906 751.160156 Z M 7.753906 57.046875 " fill-opacity="1" fill-rule="nonzero"/></g></g><g fill="#1e3a8a" fill-opacity="1"><g transform="translate(54.94322, 596.153912)"><g><path d="M 172.171875 -308.703125 L 124.296875 -148.234375 C 123.617188 -145.515625 124.804688 -144.15625 127.859375 -144.15625 L 217.515625 -144.15625 C 220.566406 -144.15625 221.753906 -145.515625 221.078125 -148.234375 L 173.203125 -308.703125 C 173.203125 -309.035156 173.03125 -309.203125 172.6875 -309.203125 C 172.34375 -309.203125 172.171875 -309.035156 172.171875 -308.703125 Z M 105.953125 -85.578125 L 88.640625 -27.515625 C 85.921875 -19.359375 81.164062 -12.734375 74.375 -7.640625 C 67.582031 -2.546875 59.941406 0 51.453125 0 L 35.15625 0 C 28.019531 0 22.410156 -2.882812 18.328125 -8.65625 C 14.253906 -14.425781 13.410156 -20.710938 15.796875 -27.515625 L 125.828125 -344.359375 C 128.546875 -352.503906 133.46875 -359.125 140.59375 -364.21875 C 147.726562 -369.3125 155.707031 -371.859375 164.53125 -371.859375 L 182.875 -371.859375 C 191.707031 -371.859375 199.6875 -369.3125 206.8125 -364.21875 C 213.945312 -359.125 218.875 -352.503906 221.59375 -344.359375 L 331.625 -27.515625 C 334 -20.710938 333.148438 -14.425781 329.078125 -8.65625 C 325.003906 -2.882812 319.398438 0 312.265625 0 L 293.921875 0 C 285.429688 0 277.789062 -2.546875 271 -7.640625 C 264.207031 -12.734375 259.453125 -19.359375 256.734375 -27.515625 L 239.421875 -85.578125 C 238.742188 -88.296875 236.875 -89.65625 233.8125 -89.65625 L 111.5625 -89.65625 C 108.5 -89.65625 106.628906 -88.296875 105.953125 -85.578125 Z M 105.953125 -85.578125 "/></g></g></g><g fill="#ffde59" fill-opacity="1"><g transform="translate(426.84171, 596.153912)"><g><path d="M 110.546875 -312.78125 L 110.546875 -59.09375 C 110.546875 -56.71875 111.898438 -55.1875 114.609375 -54.5 C 125.484375 -52.800781 135.84375 -51.953125 145.6875 -51.953125 C 187.125 -51.953125 218.113281 -63.328125 238.65625 -86.078125 C 259.195312 -108.835938 269.46875 -143.820312 269.46875 -191.03125 C 269.46875 -276.945312 228.207031 -319.90625 145.6875 -319.90625 C 135.84375 -319.90625 125.484375 -319.054688 114.609375 -317.359375 C 111.898438 -316.679688 110.546875 -315.15625 110.546875 -312.78125 Z M 337.234375 -191.03125 C 337.234375 -127.519531 320.335938 -78.953125 286.546875 -45.328125 C 252.753906 -11.710938 204.613281 5.09375 142.125 5.09375 C 115.289062 5.09375 91.007812 3.90625 69.28125 1.53125 C 60.789062 0.507812 53.828125 -3.140625 48.390625 -9.421875 C 42.960938 -15.703125 40.25 -23.085938 40.25 -31.578125 L 40.25 -340.28125 C 40.25 -348.769531 42.960938 -356.15625 48.390625 -362.4375 C 53.828125 -368.71875 60.789062 -372.367188 69.28125 -373.390625 C 91.007812 -375.765625 115.289062 -376.953125 142.125 -376.953125 C 204.269531 -376.953125 252.320312 -360.738281 286.28125 -328.3125 C 320.25 -295.882812 337.234375 -250.125 337.234375 -191.03125 Z M 337.234375 -191.03125 "/></g></g></g></svg>